<svg width="486.000000" height="549.504883" viewBox="0 0 486 549.505" fill="none" xmlns="http://www.w3.org/2000/svg" xmlns:xlink="http://www.w3.org/1999/xlink">
	<desc>
			Created with Pixso.
	</desc>
	<defs/>
	<path id="yellow-bg" d="M266.92 0.41C329.01 3.36 394.31 26.48 432.22 74.59C467.26 119.08 443.71 182.26 453.73 237.54C461.77 281.98 491.81 321.4 485 366.04C477.45 415.5 453.37 462.69 414.4 495.1C373.58 529.05 319.51 557.58 266.92 547.41C215.95 537.56 200.07 472.95 156.52 445.26C108.87 414.97 25.8 431.57 4.02 380.27C-17.32 330.02 52.51 285.87 66.49 233.21C81.98 174.88 49.79 104.4 89.5 58.28C130.64 10.5 203.08 -2.63 266.92 0.41Z" fill="#FDC435" fill-opacity="1.000000" fill-rule="evenodd"/>
</svg>
