<?xml version="1.0" encoding="UTF-8"?>
<svg version="1.1" viewBox="0 0 900 900" width="900" height="900" xmlns="http://www.w3.org/2000/svg">
<path transform="translate(0)" d="m0 0h900v900h-900z" fill="#FE6500"/>
<path transform="translate(0,468)" d="m0 0h1l3 36 5 32 6 27 8 27 7 20 10 24 12 25 14 25 16 24 14 19 11 13 9 11 10 10 7 8 15 14 10 9 14 11 17 13 21 14 25 15 16 8 24 11 26 10 29 9 24 6 34 6 28 3 16 1v1h-432z" fill="#FEFFFE"/>
<path transform="translate(0)" d="m0 0h432v1l-36 3-32 5-27 6-27 8-20 7-26 11-25 12-23 13-24 16-19 14-13 11-11 9-10 10-8 7-14 15-9 10-11 14-13 17-14 21-13 22-12 23-9 20-9 23-9 28-7 28-5 27-4 35-1 16h-1z" fill="#FEFFFE"/>
<path transform="translate(899,467)" d="m0 0h1v433h-433v-1l29-2 35-5 32-7 24-7 23-8 24-10 25-12 23-13 19-12 18-13 14-11 13-11 12-11 13-12 11-12 10-11 11-14 13-17 14-21 15-25 8-16 9-19 11-28 9-28 7-28 6-34 3-28z" fill="#FEFFFE"/>
<path transform="translate(468)" d="m0 0h432v432h-1l-3-36-5-32-6-27-9-30-9-25-8-18-12-25-12-21-12-19-13-18-11-14-11-13-11-12-12-13-15-14-11-9-13-11-19-14-20-13-22-13-16-8-19-9-28-11-28-9-28-7-27-5-23-3-28-2z" fill="#FEFFFE"/>
<path transform="translate(583,317)" d="m0 0 9 3 19 10 39 20 80 41 29 15 20 10 19 10 17 9 16 8 13 7v32l-23 12-35 18-19 10-38 19-19 10-80 41-45 23-3-1v-37l19-10 110-55 19-9 72-36h2v-2l-6-2-108-54-19-9-88-44-1-3v-35z" fill="#FEFFFE"/>
<path transform="translate(313,317)" d="m0 0h3v39l-218 109v2l218 109v39l-4-1-32-16-19-10-39-20-167-86v-32l22-11 19-10 33-17 105-54 23-12 15-8 16-8 19-10z" fill="#FEFFFE"/>
<path transform="translate(509,230)" d="m0 0h38l-1 6-19 49-10 26-22 57-19 49-13 34-19 49-44 114-9 23-1 1h-38l6-17 19-49 18-47 17-44 20-52 18-47 34-88 24-63z" fill="#FEFFFE"/>
</svg>
